<svg width="20" height="20" viewBox="0 0 20 20" fill="none" xmlns="http://www.w3.org/2000/svg">
<path d="M3.50911 16.4616C3.16595 16.2579 2.87084 15.997 2.52539 15.6302C2.3461 15.4347 2.16841 15.2381 1.99236 15.0403C1.46276 14.4544 1.12875 14.1834 0.784453 14.0723C0.639586 14.0296 0.505775 13.9615 0.390902 13.872C0.276029 13.7825 0.182416 13.6735 0.115575 13.5513C0.048733 13.4291 0.0100147 13.2962 0.00169956 13.1605C-0.0066156 13.0248 0.0156404 12.8889 0.0671572 12.761C0.118674 12.6331 0.19841 12.5156 0.30167 12.4155C0.40493 12.3154 0.529626 12.2348 0.668416 12.1783C0.807206 12.1218 0.957284 12.0906 1.10981 12.0865C1.26234 12.0825 1.41424 12.1057 1.55655 12.1547C2.41673 12.4298 2.99895 12.9036 3.78363 13.7727C3.67611 13.6535 4.17254 14.2078 4.27892 14.3219C4.49625 14.5532 4.65639 14.6938 4.78221 14.7682C5.01556 14.9078 5.4548 14.9679 6.09764 14.9109C6.12509 14.5216 6.20516 14.1436 6.3287 13.7941C2.93375 13.0554 1.01208 11.1042 1.01208 7.2772C1.01208 6.01579 1.4353 4.87767 2.22227 3.92398C1.97291 3.01307 2.01066 1.91163 2.56772 0.671624C2.63079 0.531167 2.72819 0.404984 2.85284 0.302236C2.97749 0.199488 3.12625 0.122752 3.28834 0.0776011C3.38099 0.0531474 3.43361 0.0429584 3.52626 0.0297126C4.44478 -0.095613 5.7419 0.202927 7.43251 1.14745C8.44001 0.937643 9.47138 0.832336 10.506 0.833631C11.5492 0.833631 12.5867 0.938578 13.5761 1.14745C15.2656 0.196813 16.5662 -0.102745 17.4904 0.0297126C17.5876 0.0439773 17.6711 0.0623175 17.7398 0.0816767C17.8986 0.128319 18.0439 0.205406 18.1657 0.30751C18.2874 0.409614 18.3825 0.534251 18.4444 0.672643C19.0014 1.91062 19.0392 3.01205 18.7898 3.92296C19.5802 4.87666 20 6.00662 20 7.2772C20 11.1063 18.0852 13.0503 14.6902 13.7911C14.8332 14.2139 14.9076 14.6857 14.9076 15.1972C14.9076 15.8737 14.9053 16.5207 14.8996 17.2452C14.8996 17.4388 14.8973 17.6466 14.8939 17.9645C15.1502 18.0148 15.3793 18.142 15.5427 18.3249C15.7062 18.5078 15.7941 18.7352 15.7917 18.969C15.7893 19.2027 15.6967 19.4286 15.5295 19.6088C15.3622 19.789 15.1306 19.9125 14.8733 19.9585C13.5693 20.1908 12.6039 19.4165 12.6039 18.4057L12.6062 17.9503L12.6119 17.2319C12.6176 16.5116 12.621 15.8686 12.621 15.1972C12.621 14.487 12.4106 14.0234 12.1337 13.8104C11.3777 13.2297 11.7608 12.1252 12.7526 12.0263C16.1452 11.686 17.7123 10.5153 17.7123 7.27822C17.7123 6.30516 17.3554 5.50023 16.668 4.82775C16.5235 4.68636 16.4267 4.51163 16.3884 4.32352C16.3502 4.13542 16.3722 3.94153 16.4518 3.76401C16.6417 3.34116 16.7217 2.78891 16.5604 2.11949L16.549 2.12153C15.9874 2.26418 15.2793 2.56985 14.4237 3.08949C14.2858 3.17289 14.129 3.22842 13.9644 3.25218C13.7998 3.27594 13.6314 3.26736 13.4709 3.22704C12.5054 2.98857 11.5079 2.86859 10.506 2.87043C9.48801 2.87043 8.47914 2.9927 7.54118 3.22704C7.38154 3.26703 7.21405 3.27563 7.05031 3.25223C6.88658 3.22883 6.73051 3.174 6.59293 3.09153C5.73161 2.57494 5.02128 2.26927 4.45393 2.12662C4.29036 2.79197 4.37157 3.3432 4.5603 3.76401C4.63992 3.94153 4.66187 4.13542 4.62364 4.32352C4.58541 4.51163 4.48855 4.68636 4.34412 4.82775C3.66124 5.49615 3.29978 6.31433 3.29978 7.2772C3.29978 10.5092 4.868 11.6891 8.2435 12.0253C9.23293 12.1252 9.61841 13.2256 8.8669 13.8074C8.64614 13.9775 8.37505 14.5532 8.37505 15.1972V18.4057C8.37505 19.4104 7.42108 20.1643 6.1331 19.9636C5.87141 19.9233 5.63362 19.8032 5.46052 19.6237C5.28741 19.4443 5.18978 19.2169 5.18437 18.9804C5.17896 18.7439 5.26611 18.513 5.43086 18.3275C5.59562 18.142 5.82772 18.0133 6.08734 17.9635V16.9548C5.04644 17.018 4.18741 16.8661 3.50911 16.4616Z" fill="white"/>
</svg>
