<svg width="35" height="30" viewBox="0 0 35 30" fill="none" xmlns="http://www.w3.org/2000/svg">
<path d="M16.03 0.400312C16.905 -0.0243755 18.0206 -0.0262505 18.8738 0.400312L31.9375 6.7125C32.7545 7.10625 33.3014 7.88719 33.2938 8.69438V21.3506C33.2992 22.1916 32.6988 22.9894 31.8369 23.3756L18.8431 29.6587C18.3987 29.8693 17.8966 29.9739 17.3891 29.9619C16.8815 29.9499 16.3869 29.8216 15.9567 29.5903L12.0575 27.6591C11.7917 27.5231 11.4931 27.4153 11.305 27.195C11.4713 27.0037 11.7666 26.9794 12.0072 26.895C12.5497 26.7469 13.0463 26.52 13.545 26.28C13.6708 26.205 13.825 26.2331 13.9453 26.3006L17.2703 27.9487C17.5077 28.0659 17.7483 27.9112 17.9517 27.8128L30.7103 21.6412C30.8678 21.5756 30.9553 21.4331 30.9422 21.285V8.75062C30.9597 8.58187 30.847 8.42812 30.6688 8.35969L17.7078 2.10375C17.6331 2.05947 17.5445 2.03567 17.4537 2.0355C17.3629 2.03534 17.2742 2.05881 17.1992 2.10281L4.25689 8.37187C4.08189 8.44031 3.96158 8.59219 3.98346 8.76094V21.2953C3.96814 21.4434 4.06002 21.5831 4.21861 21.6469L7.67705 23.3203C8.32674 23.6203 9.12408 23.7891 9.83939 23.5687C10.1524 23.4676 10.4219 23.2869 10.6117 23.0508C10.8015 22.8147 10.9026 22.5345 10.9014 22.2478L10.9047 9.78844C10.8894 9.60375 11.0928 9.45094 11.3017 9.46969H12.9642C13.183 9.465 13.3547 9.66375 13.3252 9.84937L13.3219 22.3875C13.323 23.5012 12.7892 24.7125 11.5872 25.2591C10.1063 25.9153 8.27533 25.7775 6.81189 25.1466L3.09314 23.3841C2.21814 23.0091 1.6308 22.1991 1.63627 21.3591V8.70281C1.63991 8.29146 1.77184 7.88843 2.01839 7.53551C2.26494 7.18258 2.61713 6.8926 3.03846 6.69562L16.03 0.400312ZM19.7969 9.17344C21.6858 9.07969 23.7081 9.11156 25.4078 9.90937C26.7236 10.5206 27.4531 11.8031 27.4772 13.0575C27.44 13.2263 27.2344 13.32 27.0463 13.3078C26.4994 13.3069 25.9503 13.3144 25.4013 13.305C25.1683 13.3125 25.0338 13.1287 25.0042 12.9525C24.8467 12.3525 24.465 11.7591 23.8066 11.4694C22.796 11.0353 21.6235 11.0569 20.521 11.0662C19.716 11.1037 18.8508 11.1628 18.1694 11.5678C17.6444 11.8753 17.4869 12.5053 17.6739 12.9947C17.8489 13.3538 18.3335 13.4691 18.7283 13.5759C21.0055 14.0859 23.4172 14.0447 25.6517 14.7075C26.576 14.9812 27.4805 15.5137 27.7977 16.3434C28.2111 17.4553 28.0306 18.7847 27.1086 19.6772C26.3605 20.4122 25.2711 20.8022 24.1828 21.0291C22.7358 21.3056 21.2352 21.3122 19.7663 21.1884C18.3849 21.0534 16.9477 20.7422 15.8813 19.9359C14.9691 19.2572 14.525 18.1997 14.5688 17.1797C14.5797 17.0072 14.7799 16.8872 14.9735 16.9012H16.6141C16.835 16.8881 16.9969 17.0512 17.0078 17.2294C17.1096 17.7919 17.36 18.4012 17.9419 18.7294C19.0641 19.35 20.4717 19.3069 21.7558 19.3247C22.82 19.2844 24.0144 19.2722 24.8839 18.6684C25.3433 18.3244 25.4778 17.7497 25.3542 17.2547C25.2197 16.8366 24.698 16.6425 24.2605 16.5047C22.0128 15.8953 19.5738 16.1166 17.348 15.4266C16.4446 15.1528 15.5706 14.6353 15.2239 13.8394C14.7394 12.7144 14.9614 11.3203 15.9819 10.4578C16.9663 9.6 18.41 9.26906 19.7772 9.15094L19.7969 9.17344Z" fill="#DFDFDF"/>
</svg>
